<svg xmlns="http://www.w3.org/2000/svg" xmlns:xlink="http://www.w3.org/1999/xlink" style="margin:auto;background:#7aceff;display:block;z-index:1;position:relative" width="2560" height="1140" preserveAspectRatio="xMidYMid" viewBox="0 0 2560 1140">
  <g transform=""><g transform="translate(-100 677.5812723783226) rotate(0)">
    <animateTransform attributeName="transform" type="translate" keyTimes="0;1" values="-100 677.5812723783226;2560 677.5812723783226" dur="1000s" repeatCount="indefinite" begin="-406.05569785061624s"></animateTransform>
    <path d="M84.717,33.597c0.791-2.503,1.186-5.138,1.186-7.773C85.903,11.594,74.308,0,60.079,0 c-9.881,0-18.445,5.534-22.793,13.702c-1.581-0.527-3.426-0.791-5.138-0.791c-9.486,0-17.128,7.642-17.128,17.128 c0,1.186,0.132,2.372,0.395,3.426C6.719,34.783,0,42.424,0,51.515C0,61.66,8.169,69.829,18.314,69.829h63.373 C91.831,69.829,100,61.66,100,51.515C99.868,42.556,93.281,35.046,84.717,33.597z" fill="#bddeff" transform="scale(1.28)"></path>
  </g><g transform="translate(-100 822.0200972932274) rotate(0)">
    <animateTransform attributeName="transform" type="translate" keyTimes="0;1" values="-100 822.0200972932274;2560 822.0200972932274" dur="1000s" repeatCount="indefinite" begin="-181.87441779711523s"></animateTransform>
    <path d="M84.717,33.597c0.791-2.503,1.186-5.138,1.186-7.773C85.903,11.594,74.308,0,60.079,0 c-9.881,0-18.445,5.534-22.793,13.702c-1.581-0.527-3.426-0.791-5.138-0.791c-9.486,0-17.128,7.642-17.128,17.128 c0,1.186,0.132,2.372,0.395,3.426C6.719,34.783,0,42.424,0,51.515C0,61.66,8.169,69.829,18.314,69.829h63.373 C91.831,69.829,100,61.66,100,51.515C99.868,42.556,93.281,35.046,84.717,33.597z" fill="#bddeff" transform="scale(1.28)"></path>
  </g><g transform="translate(-100 574.7889588583939) rotate(0)">
    <animateTransform attributeName="transform" type="translate" keyTimes="0;1" values="-100 574.7889588583939;2560 574.7889588583939" dur="1000s" repeatCount="indefinite" begin="-678.5795088421143s"></animateTransform>
    <path d="M84.717,33.597c0.791-2.503,1.186-5.138,1.186-7.773C85.903,11.594,74.308,0,60.079,0 c-9.881,0-18.445,5.534-22.793,13.702c-1.581-0.527-3.426-0.791-5.138-0.791c-9.486,0-17.128,7.642-17.128,17.128 c0,1.186,0.132,2.372,0.395,3.426C6.719,34.783,0,42.424,0,51.515C0,61.66,8.169,69.829,18.314,69.829h63.373 C91.831,69.829,100,61.66,100,51.515C99.868,42.556,93.281,35.046,84.717,33.597z" fill="#bddeff" transform="scale(1.28)"></path>
  </g><g transform="translate(-100 181.165310650237) rotate(0)">
    <animateTransform attributeName="transform" type="translate" keyTimes="0;1" values="-100 181.165310650237;2560 181.165310650237" dur="1000s" repeatCount="indefinite" begin="-437.85650546121957s"></animateTransform>
    <path d="M84.717,33.597c0.791-2.503,1.186-5.138,1.186-7.773C85.903,11.594,74.308,0,60.079,0 c-9.881,0-18.445,5.534-22.793,13.702c-1.581-0.527-3.426-0.791-5.138-0.791c-9.486,0-17.128,7.642-17.128,17.128 c0,1.186,0.132,2.372,0.395,3.426C6.719,34.783,0,42.424,0,51.515C0,61.66,8.169,69.829,18.314,69.829h63.373 C91.831,69.829,100,61.66,100,51.515C99.868,42.556,93.281,35.046,84.717,33.597z" fill="#bddeff" transform="scale(1.28)"></path>
  </g><g transform="translate(-100 393.6085898382488) rotate(0)">
    <animateTransform attributeName="transform" type="translate" keyTimes="0;1" values="-100 393.6085898382488;2560 393.6085898382488" dur="1000s" repeatCount="indefinite" begin="-749.9050639133025s"></animateTransform>
    <path d="M84.717,33.597c0.791-2.503,1.186-5.138,1.186-7.773C85.903,11.594,74.308,0,60.079,0 c-9.881,0-18.445,5.534-22.793,13.702c-1.581-0.527-3.426-0.791-5.138-0.791c-9.486,0-17.128,7.642-17.128,17.128 c0,1.186,0.132,2.372,0.395,3.426C6.719,34.783,0,42.424,0,51.515C0,61.66,8.169,69.829,18.314,69.829h63.373 C91.831,69.829,100,61.66,100,51.515C99.868,42.556,93.281,35.046,84.717,33.597z" fill="#bddeff" transform="scale(1.28)"></path>
  </g><g transform="translate(-100 820.525666871573) rotate(0)">
    <animateTransform attributeName="transform" type="translate" keyTimes="0;1" values="-100 820.525666871573;2560 820.525666871573" dur="1000s" repeatCount="indefinite" begin="-667.496327439139s"></animateTransform>
    <path d="M84.717,33.597c0.791-2.503,1.186-5.138,1.186-7.773C85.903,11.594,74.308,0,60.079,0 c-9.881,0-18.445,5.534-22.793,13.702c-1.581-0.527-3.426-0.791-5.138-0.791c-9.486,0-17.128,7.642-17.128,17.128 c0,1.186,0.132,2.372,0.395,3.426C6.719,34.783,0,42.424,0,51.515C0,61.66,8.169,69.829,18.314,69.829h63.373 C91.831,69.829,100,61.66,100,51.515C99.868,42.556,93.281,35.046,84.717,33.597z" fill="#bddeff" transform="scale(1.28)"></path>
  </g><g transform="translate(-100 313.0817476544804) rotate(0)">
    <animateTransform attributeName="transform" type="translate" keyTimes="0;1" values="-100 313.0817476544804;2560 313.0817476544804" dur="1000s" repeatCount="indefinite" begin="-452.2344207144826s"></animateTransform>
    <path d="M84.717,33.597c0.791-2.503,1.186-5.138,1.186-7.773C85.903,11.594,74.308,0,60.079,0 c-9.881,0-18.445,5.534-22.793,13.702c-1.581-0.527-3.426-0.791-5.138-0.791c-9.486,0-17.128,7.642-17.128,17.128 c0,1.186,0.132,2.372,0.395,3.426C6.719,34.783,0,42.424,0,51.515C0,61.66,8.169,69.829,18.314,69.829h63.373 C91.831,69.829,100,61.66,100,51.515C99.868,42.556,93.281,35.046,84.717,33.597z" fill="#bddeff" transform="scale(1.28)"></path>
  </g><g transform="translate(-100 8.774758266677466) rotate(0)">
    <animateTransform attributeName="transform" type="translate" keyTimes="0;1" values="-100 8.774758266677466;2560 8.774758266677466" dur="1000s" repeatCount="indefinite" begin="-980.736943190696s"></animateTransform>
    <path d="M84.717,33.597c0.791-2.503,1.186-5.138,1.186-7.773C85.903,11.594,74.308,0,60.079,0 c-9.881,0-18.445,5.534-22.793,13.702c-1.581-0.527-3.426-0.791-5.138-0.791c-9.486,0-17.128,7.642-17.128,17.128 c0,1.186,0.132,2.372,0.395,3.426C6.719,34.783,0,42.424,0,51.515C0,61.66,8.169,69.829,18.314,69.829h63.373 C91.831,69.829,100,61.66,100,51.515C99.868,42.556,93.281,35.046,84.717,33.597z" fill="#bddeff" transform="scale(1.28)"></path>
  </g><g transform="translate(-100 887.2989360895468) rotate(0)">
    <animateTransform attributeName="transform" type="translate" keyTimes="0;1" values="-100 887.2989360895468;2560 887.2989360895468" dur="1000s" repeatCount="indefinite" begin="-677.1034261711595s"></animateTransform>
    <path d="M84.717,33.597c0.791-2.503,1.186-5.138,1.186-7.773C85.903,11.594,74.308,0,60.079,0 c-9.881,0-18.445,5.534-22.793,13.702c-1.581-0.527-3.426-0.791-5.138-0.791c-9.486,0-17.128,7.642-17.128,17.128 c0,1.186,0.132,2.372,0.395,3.426C6.719,34.783,0,42.424,0,51.515C0,61.66,8.169,69.829,18.314,69.829h63.373 C91.831,69.829,100,61.66,100,51.515C99.868,42.556,93.281,35.046,84.717,33.597z" fill="#bddeff" transform="scale(1.28)"></path>
  </g><g transform="translate(-100 965.5272266296314) rotate(0)">
    <animateTransform attributeName="transform" type="translate" keyTimes="0;1" values="-100 965.5272266296314;2560 965.5272266296314" dur="1000s" repeatCount="indefinite" begin="-408.0532029237556s"></animateTransform>
    <path d="M84.717,33.597c0.791-2.503,1.186-5.138,1.186-7.773C85.903,11.594,74.308,0,60.079,0 c-9.881,0-18.445,5.534-22.793,13.702c-1.581-0.527-3.426-0.791-5.138-0.791c-9.486,0-17.128,7.642-17.128,17.128 c0,1.186,0.132,2.372,0.395,3.426C6.719,34.783,0,42.424,0,51.515C0,61.66,8.169,69.829,18.314,69.829h63.373 C91.831,69.829,100,61.66,100,51.515C99.868,42.556,93.281,35.046,84.717,33.597z" fill="#bddeff" transform="scale(1.28)"></path>
  </g><g transform="translate(-100 622.0137699625718) rotate(0)">
    <animateTransform attributeName="transform" type="translate" keyTimes="0;1" values="-100 622.0137699625718;2560 622.0137699625718" dur="1000s" repeatCount="indefinite" begin="-596.3130579760914s"></animateTransform>
    <path d="M84.717,33.597c0.791-2.503,1.186-5.138,1.186-7.773C85.903,11.594,74.308,0,60.079,0 c-9.881,0-18.445,5.534-22.793,13.702c-1.581-0.527-3.426-0.791-5.138-0.791c-9.486,0-17.128,7.642-17.128,17.128 c0,1.186,0.132,2.372,0.395,3.426C6.719,34.783,0,42.424,0,51.515C0,61.66,8.169,69.829,18.314,69.829h63.373 C91.831,69.829,100,61.66,100,51.515C99.868,42.556,93.281,35.046,84.717,33.597z" fill="#bddeff" transform="scale(1.28)"></path>
  </g><g transform="translate(-100 722.0243769690874) rotate(0)">
    <animateTransform attributeName="transform" type="translate" keyTimes="0;1" values="-100 722.0243769690874;2560 722.0243769690874" dur="500s" repeatCount="indefinite" begin="-849.73162974685s"></animateTransform>
    <path d="M84.717,33.597c0.791-2.503,1.186-5.138,1.186-7.773C85.903,11.594,74.308,0,60.079,0 c-9.881,0-18.445,5.534-22.793,13.702c-1.581-0.527-3.426-0.791-5.138-0.791c-9.486,0-17.128,7.642-17.128,17.128 c0,1.186,0.132,2.372,0.395,3.426C6.719,34.783,0,42.424,0,51.515C0,61.66,8.169,69.829,18.314,69.829h63.373 C91.831,69.829,100,61.66,100,51.515C99.868,42.556,93.281,35.046,84.717,33.597z" fill="#ffffff" transform="scale(1.52)"></path>
  </g><g transform="translate(-100 619.8961298120696) rotate(0)">
    <animateTransform attributeName="transform" type="translate" keyTimes="0;1" values="-100 619.8961298120696;2560 619.8961298120696" dur="500s" repeatCount="indefinite" begin="-184.49054244353346s"></animateTransform>
    <path d="M84.717,33.597c0.791-2.503,1.186-5.138,1.186-7.773C85.903,11.594,74.308,0,60.079,0 c-9.881,0-18.445,5.534-22.793,13.702c-1.581-0.527-3.426-0.791-5.138-0.791c-9.486,0-17.128,7.642-17.128,17.128 c0,1.186,0.132,2.372,0.395,3.426C6.719,34.783,0,42.424,0,51.515C0,61.66,8.169,69.829,18.314,69.829h63.373 C91.831,69.829,100,61.66,100,51.515C99.868,42.556,93.281,35.046,84.717,33.597z" fill="#ffffff" transform="scale(1.52)"></path>
  </g><g transform="translate(-100 586.4233308247323) rotate(0)">
    <animateTransform attributeName="transform" type="translate" keyTimes="0;1" values="-100 586.4233308247323;2560 586.4233308247323" dur="500s" repeatCount="indefinite" begin="-152.69138024188743s"></animateTransform>
    <path d="M84.717,33.597c0.791-2.503,1.186-5.138,1.186-7.773C85.903,11.594,74.308,0,60.079,0 c-9.881,0-18.445,5.534-22.793,13.702c-1.581-0.527-3.426-0.791-5.138-0.791c-9.486,0-17.128,7.642-17.128,17.128 c0,1.186,0.132,2.372,0.395,3.426C6.719,34.783,0,42.424,0,51.515C0,61.66,8.169,69.829,18.314,69.829h63.373 C91.831,69.829,100,61.66,100,51.515C99.868,42.556,93.281,35.046,84.717,33.597z" fill="#ffffff" transform="scale(1.52)"></path>
  </g><g transform="translate(-100 174.30685265996544) rotate(0)">
    <animateTransform attributeName="transform" type="translate" keyTimes="0;1" values="-100 174.30685265996544;2560 174.30685265996544" dur="500s" repeatCount="indefinite" begin="-737.6317654865708s"></animateTransform>
    <path d="M84.717,33.597c0.791-2.503,1.186-5.138,1.186-7.773C85.903,11.594,74.308,0,60.079,0 c-9.881,0-18.445,5.534-22.793,13.702c-1.581-0.527-3.426-0.791-5.138-0.791c-9.486,0-17.128,7.642-17.128,17.128 c0,1.186,0.132,2.372,0.395,3.426C6.719,34.783,0,42.424,0,51.515C0,61.66,8.169,69.829,18.314,69.829h63.373 C91.831,69.829,100,61.66,100,51.515C99.868,42.556,93.281,35.046,84.717,33.597z" fill="#ffffff" transform="scale(1.52)"></path>
  </g><g transform="translate(-100 613.782490205867) rotate(0)">
    <animateTransform attributeName="transform" type="translate" keyTimes="0;1" values="-100 613.782490205867;2560 613.782490205867" dur="500s" repeatCount="indefinite" begin="-442.9315555672304s"></animateTransform>
    <path d="M84.717,33.597c0.791-2.503,1.186-5.138,1.186-7.773C85.903,11.594,74.308,0,60.079,0 c-9.881,0-18.445,5.534-22.793,13.702c-1.581-0.527-3.426-0.791-5.138-0.791c-9.486,0-17.128,7.642-17.128,17.128 c0,1.186,0.132,2.372,0.395,3.426C6.719,34.783,0,42.424,0,51.515C0,61.66,8.169,69.829,18.314,69.829h63.373 C91.831,69.829,100,61.66,100,51.515C99.868,42.556,93.281,35.046,84.717,33.597z" fill="#ffffff" transform="scale(1.52)"></path>
  </g><g transform="translate(-100 885.6866201948706) rotate(0)">
    <animateTransform attributeName="transform" type="translate" keyTimes="0;1" values="-100 885.6866201948706;2560 885.6866201948706" dur="500s" repeatCount="indefinite" begin="-555.3812860015075s"></animateTransform>
    <path d="M84.717,33.597c0.791-2.503,1.186-5.138,1.186-7.773C85.903,11.594,74.308,0,60.079,0 c-9.881,0-18.445,5.534-22.793,13.702c-1.581-0.527-3.426-0.791-5.138-0.791c-9.486,0-17.128,7.642-17.128,17.128 c0,1.186,0.132,2.372,0.395,3.426C6.719,34.783,0,42.424,0,51.515C0,61.66,8.169,69.829,18.314,69.829h63.373 C91.831,69.829,100,61.66,100,51.515C99.868,42.556,93.281,35.046,84.717,33.597z" fill="#ffffff" transform="scale(1.52)"></path>
  </g><g transform="translate(-100 432.25525445321665) rotate(0)">
    <animateTransform attributeName="transform" type="translate" keyTimes="0;1" values="-100 432.25525445321665;2560 432.25525445321665" dur="500s" repeatCount="indefinite" begin="-353.7780869716043s"></animateTransform>
    <path d="M84.717,33.597c0.791-2.503,1.186-5.138,1.186-7.773C85.903,11.594,74.308,0,60.079,0 c-9.881,0-18.445,5.534-22.793,13.702c-1.581-0.527-3.426-0.791-5.138-0.791c-9.486,0-17.128,7.642-17.128,17.128 c0,1.186,0.132,2.372,0.395,3.426C6.719,34.783,0,42.424,0,51.515C0,61.66,8.169,69.829,18.314,69.829h63.373 C91.831,69.829,100,61.66,100,51.515C99.868,42.556,93.281,35.046,84.717,33.597z" fill="#ffffff" transform="scale(1.52)"></path>
  </g><g transform="translate(-100 991.3081644555107) rotate(0)">
    <animateTransform attributeName="transform" type="translate" keyTimes="0;1" values="-100 991.3081644555107;2560 991.3081644555107" dur="500s" repeatCount="indefinite" begin="-767.9294681139556s"></animateTransform>
    <path d="M84.717,33.597c0.791-2.503,1.186-5.138,1.186-7.773C85.903,11.594,74.308,0,60.079,0 c-9.881,0-18.445,5.534-22.793,13.702c-1.581-0.527-3.426-0.791-5.138-0.791c-9.486,0-17.128,7.642-17.128,17.128 c0,1.186,0.132,2.372,0.395,3.426C6.719,34.783,0,42.424,0,51.515C0,61.66,8.169,69.829,18.314,69.829h63.373 C91.831,69.829,100,61.66,100,51.515C99.868,42.556,93.281,35.046,84.717,33.597z" fill="#ffffff" transform="scale(1.52)"></path>
  </g><g transform="translate(-100 606.5130264979949) rotate(0)">
    <animateTransform attributeName="transform" type="translate" keyTimes="0;1" values="-100 606.5130264979949;2560 606.5130264979949" dur="500s" repeatCount="indefinite" begin="-133.38422139282312s"></animateTransform>
    <path d="M84.717,33.597c0.791-2.503,1.186-5.138,1.186-7.773C85.903,11.594,74.308,0,60.079,0 c-9.881,0-18.445,5.534-22.793,13.702c-1.581-0.527-3.426-0.791-5.138-0.791c-9.486,0-17.128,7.642-17.128,17.128 c0,1.186,0.132,2.372,0.395,3.426C6.719,34.783,0,42.424,0,51.515C0,61.66,8.169,69.829,18.314,69.829h63.373 C91.831,69.829,100,61.66,100,51.515C99.868,42.556,93.281,35.046,84.717,33.597z" fill="#ffffff" transform="scale(1.52)"></path>
  </g><g transform="translate(-100 254.24126871396138) rotate(0)">
    <animateTransform attributeName="transform" type="translate" keyTimes="0;1" values="-100 254.24126871396138;2560 254.24126871396138" dur="500s" repeatCount="indefinite" begin="-456.5183934668717s"></animateTransform>
    <path d="M84.717,33.597c0.791-2.503,1.186-5.138,1.186-7.773C85.903,11.594,74.308,0,60.079,0 c-9.881,0-18.445,5.534-22.793,13.702c-1.581-0.527-3.426-0.791-5.138-0.791c-9.486,0-17.128,7.642-17.128,17.128 c0,1.186,0.132,2.372,0.395,3.426C6.719,34.783,0,42.424,0,51.515C0,61.66,8.169,69.829,18.314,69.829h63.373 C91.831,69.829,100,61.66,100,51.515C99.868,42.556,93.281,35.046,84.717,33.597z" fill="#ffffff" transform="scale(1.52)"></path>
  </g><g transform="translate(-100 569.632457798675) rotate(0)">
    <animateTransform attributeName="transform" type="translate" keyTimes="0;1" values="-100 569.632457798675;2560 569.632457798675" dur="500s" repeatCount="indefinite" begin="-751.0393895603725s"></animateTransform>
    <path d="M84.717,33.597c0.791-2.503,1.186-5.138,1.186-7.773C85.903,11.594,74.308,0,60.079,0 c-9.881,0-18.445,5.534-22.793,13.702c-1.581-0.527-3.426-0.791-5.138-0.791c-9.486,0-17.128,7.642-17.128,17.128 c0,1.186,0.132,2.372,0.395,3.426C6.719,34.783,0,42.424,0,51.515C0,61.66,8.169,69.829,18.314,69.829h63.373 C91.831,69.829,100,61.66,100,51.515C99.868,42.556,93.281,35.046,84.717,33.597z" fill="#ffffff" transform="scale(1.52)"></path>
  </g><g transform="translate(-100 253.09763170141045) rotate(0)">
    <animateTransform attributeName="transform" type="translate" keyTimes="0;1" values="-100 253.09763170141045;2560 253.09763170141045" dur="333.3333333333333s" repeatCount="indefinite" begin="-428.4655448041577s"></animateTransform>
    <path d="M84.717,33.597c0.791-2.503,1.186-5.138,1.186-7.773C85.903,11.594,74.308,0,60.079,0 c-9.881,0-18.445,5.534-22.793,13.702c-1.581-0.527-3.426-0.791-5.138-0.791c-9.486,0-17.128,7.642-17.128,17.128 c0,1.186,0.132,2.372,0.395,3.426C6.719,34.783,0,42.424,0,51.515C0,61.66,8.169,69.829,18.314,69.829h63.373 C91.831,69.829,100,61.66,100,51.515C99.868,42.556,93.281,35.046,84.717,33.597z" fill="#f1f2f3" transform="scale(1.76)"></path>
  </g><g transform="translate(-100 1065.1756142421186) rotate(0)">
    <animateTransform attributeName="transform" type="translate" keyTimes="0;1" values="-100 1065.1756142421186;2560 1065.1756142421186" dur="333.3333333333333s" repeatCount="indefinite" begin="-690.2929757536673s"></animateTransform>
    <path d="M84.717,33.597c0.791-2.503,1.186-5.138,1.186-7.773C85.903,11.594,74.308,0,60.079,0 c-9.881,0-18.445,5.534-22.793,13.702c-1.581-0.527-3.426-0.791-5.138-0.791c-9.486,0-17.128,7.642-17.128,17.128 c0,1.186,0.132,2.372,0.395,3.426C6.719,34.783,0,42.424,0,51.515C0,61.66,8.169,69.829,18.314,69.829h63.373 C91.831,69.829,100,61.66,100,51.515C99.868,42.556,93.281,35.046,84.717,33.597z" fill="#f1f2f3" transform="scale(1.76)"></path>
  </g><g transform="translate(-100 193.61698921236493) rotate(0)">
    <animateTransform attributeName="transform" type="translate" keyTimes="0;1" values="-100 193.61698921236493;2560 193.61698921236493" dur="333.3333333333333s" repeatCount="indefinite" begin="-820.3564472460305s"></animateTransform>
    <path d="M84.717,33.597c0.791-2.503,1.186-5.138,1.186-7.773C85.903,11.594,74.308,0,60.079,0 c-9.881,0-18.445,5.534-22.793,13.702c-1.581-0.527-3.426-0.791-5.138-0.791c-9.486,0-17.128,7.642-17.128,17.128 c0,1.186,0.132,2.372,0.395,3.426C6.719,34.783,0,42.424,0,51.515C0,61.66,8.169,69.829,18.314,69.829h63.373 C91.831,69.829,100,61.66,100,51.515C99.868,42.556,93.281,35.046,84.717,33.597z" fill="#f1f2f3" transform="scale(1.76)"></path>
  </g><g transform="translate(-100 446.0446856911084) rotate(0)">
    <animateTransform attributeName="transform" type="translate" keyTimes="0;1" values="-100 446.0446856911084;2560 446.0446856911084" dur="333.3333333333333s" repeatCount="indefinite" begin="-811.9189659304195s"></animateTransform>
    <path d="M84.717,33.597c0.791-2.503,1.186-5.138,1.186-7.773C85.903,11.594,74.308,0,60.079,0 c-9.881,0-18.445,5.534-22.793,13.702c-1.581-0.527-3.426-0.791-5.138-0.791c-9.486,0-17.128,7.642-17.128,17.128 c0,1.186,0.132,2.372,0.395,3.426C6.719,34.783,0,42.424,0,51.515C0,61.66,8.169,69.829,18.314,69.829h63.373 C91.831,69.829,100,61.66,100,51.515C99.868,42.556,93.281,35.046,84.717,33.597z" fill="#f1f2f3" transform="scale(1.76)"></path>
  </g><g transform="translate(-100 650.8920573035205) rotate(0)">
    <animateTransform attributeName="transform" type="translate" keyTimes="0;1" values="-100 650.8920573035205;2560 650.8920573035205" dur="333.3333333333333s" repeatCount="indefinite" begin="-850.2379482942399s"></animateTransform>
    <path d="M84.717,33.597c0.791-2.503,1.186-5.138,1.186-7.773C85.903,11.594,74.308,0,60.079,0 c-9.881,0-18.445,5.534-22.793,13.702c-1.581-0.527-3.426-0.791-5.138-0.791c-9.486,0-17.128,7.642-17.128,17.128 c0,1.186,0.132,2.372,0.395,3.426C6.719,34.783,0,42.424,0,51.515C0,61.66,8.169,69.829,18.314,69.829h63.373 C91.831,69.829,100,61.66,100,51.515C99.868,42.556,93.281,35.046,84.717,33.597z" fill="#f1f2f3" transform="scale(1.76)"></path>
  </g><g transform="translate(-100 0.335888490449916) rotate(0)">
    <animateTransform attributeName="transform" type="translate" keyTimes="0;1" values="-100 0.335888490449916;2560 0.335888490449916" dur="333.3333333333333s" repeatCount="indefinite" begin="-505.1457128013022s"></animateTransform>
    <path d="M84.717,33.597c0.791-2.503,1.186-5.138,1.186-7.773C85.903,11.594,74.308,0,60.079,0 c-9.881,0-18.445,5.534-22.793,13.702c-1.581-0.527-3.426-0.791-5.138-0.791c-9.486,0-17.128,7.642-17.128,17.128 c0,1.186,0.132,2.372,0.395,3.426C6.719,34.783,0,42.424,0,51.515C0,61.66,8.169,69.829,18.314,69.829h63.373 C91.831,69.829,100,61.66,100,51.515C99.868,42.556,93.281,35.046,84.717,33.597z" fill="#f1f2f3" transform="scale(1.76)"></path>
  </g><g transform="translate(-100 13.691409421482215) rotate(0)">
    <animateTransform attributeName="transform" type="translate" keyTimes="0;1" values="-100 13.691409421482215;2560 13.691409421482215" dur="333.3333333333333s" repeatCount="indefinite" begin="-404.0430856290402s"></animateTransform>
    <path d="M84.717,33.597c0.791-2.503,1.186-5.138,1.186-7.773C85.903,11.594,74.308,0,60.079,0 c-9.881,0-18.445,5.534-22.793,13.702c-1.581-0.527-3.426-0.791-5.138-0.791c-9.486,0-17.128,7.642-17.128,17.128 c0,1.186,0.132,2.372,0.395,3.426C6.719,34.783,0,42.424,0,51.515C0,61.66,8.169,69.829,18.314,69.829h63.373 C91.831,69.829,100,61.66,100,51.515C99.868,42.556,93.281,35.046,84.717,33.597z" fill="#f1f2f3" transform="scale(1.76)"></path>
  </g><g transform="translate(-100 128.09165143699292) rotate(0)">
    <animateTransform attributeName="transform" type="translate" keyTimes="0;1" values="-100 128.09165143699292;2560 128.09165143699292" dur="333.3333333333333s" repeatCount="indefinite" begin="-524.996927893838s"></animateTransform>
    <path d="M84.717,33.597c0.791-2.503,1.186-5.138,1.186-7.773C85.903,11.594,74.308,0,60.079,0 c-9.881,0-18.445,5.534-22.793,13.702c-1.581-0.527-3.426-0.791-5.138-0.791c-9.486,0-17.128,7.642-17.128,17.128 c0,1.186,0.132,2.372,0.395,3.426C6.719,34.783,0,42.424,0,51.515C0,61.66,8.169,69.829,18.314,69.829h63.373 C91.831,69.829,100,61.66,100,51.515C99.868,42.556,93.281,35.046,84.717,33.597z" fill="#f1f2f3" transform="scale(1.76)"></path>
  </g><g transform="translate(-100 1044.5000821473254) rotate(0)">
    <animateTransform attributeName="transform" type="translate" keyTimes="0;1" values="-100 1044.5000821473254;2560 1044.5000821473254" dur="333.3333333333333s" repeatCount="indefinite" begin="-820.9610434235819s"></animateTransform>
    <path d="M84.717,33.597c0.791-2.503,1.186-5.138,1.186-7.773C85.903,11.594,74.308,0,60.079,0 c-9.881,0-18.445,5.534-22.793,13.702c-1.581-0.527-3.426-0.791-5.138-0.791c-9.486,0-17.128,7.642-17.128,17.128 c0,1.186,0.132,2.372,0.395,3.426C6.719,34.783,0,42.424,0,51.515C0,61.66,8.169,69.829,18.314,69.829h63.373 C91.831,69.829,100,61.66,100,51.515C99.868,42.556,93.281,35.046,84.717,33.597z" fill="#f1f2f3" transform="scale(1.76)"></path>
  </g><g transform="translate(-100 763.5497810485491) rotate(0)">
    <animateTransform attributeName="transform" type="translate" keyTimes="0;1" values="-100 763.5497810485491;2560 763.5497810485491" dur="333.3333333333333s" repeatCount="indefinite" begin="-191.44667045448972s"></animateTransform>
    <path d="M84.717,33.597c0.791-2.503,1.186-5.138,1.186-7.773C85.903,11.594,74.308,0,60.079,0 c-9.881,0-18.445,5.534-22.793,13.702c-1.581-0.527-3.426-0.791-5.138-0.791c-9.486,0-17.128,7.642-17.128,17.128 c0,1.186,0.132,2.372,0.395,3.426C6.719,34.783,0,42.424,0,51.515C0,61.66,8.169,69.829,18.314,69.829h63.373 C91.831,69.829,100,61.66,100,51.515C99.868,42.556,93.281,35.046,84.717,33.597z" fill="#f1f2f3" transform="scale(1.76)"></path>
  </g><g transform="translate(-100 1112.3354483383882) rotate(0)">
    <animateTransform attributeName="transform" type="translate" keyTimes="0;1" values="-100 1112.3354483383882;2560 1112.3354483383882" dur="333.3333333333333s" repeatCount="indefinite" begin="-735.6324821611917s"></animateTransform>
    <path d="M84.717,33.597c0.791-2.503,1.186-5.138,1.186-7.773C85.903,11.594,74.308,0,60.079,0 c-9.881,0-18.445,5.534-22.793,13.702c-1.581-0.527-3.426-0.791-5.138-0.791c-9.486,0-17.128,7.642-17.128,17.128 c0,1.186,0.132,2.372,0.395,3.426C6.719,34.783,0,42.424,0,51.515C0,61.66,8.169,69.829,18.314,69.829h63.373 C91.831,69.829,100,61.66,100,51.515C99.868,42.556,93.281,35.046,84.717,33.597z" fill="#f1f2f3" transform="scale(1.76)"></path>
  </g><g transform="translate(-100 767.9437845181734) rotate(0)">
    <animateTransform attributeName="transform" type="translate" keyTimes="0;1" values="-100 767.9437845181734;2560 767.9437845181734" dur="250s" repeatCount="indefinite" begin="-107.29863749379254s"></animateTransform>
    <path d="M84.717,33.597c0.791-2.503,1.186-5.138,1.186-7.773C85.903,11.594,74.308,0,60.079,0 c-9.881,0-18.445,5.534-22.793,13.702c-1.581-0.527-3.426-0.791-5.138-0.791c-9.486,0-17.128,7.642-17.128,17.128 c0,1.186,0.132,2.372,0.395,3.426C6.719,34.783,0,42.424,0,51.515C0,61.66,8.169,69.829,18.314,69.829h63.373 C91.831,69.829,100,61.66,100,51.515C99.868,42.556,93.281,35.046,84.717,33.597z" fill="#bddeff" transform="scale(2)"></path>
  </g><g transform="translate(-100 367.311489777625) rotate(0)">
    <animateTransform attributeName="transform" type="translate" keyTimes="0;1" values="-100 367.311489777625;2560 367.311489777625" dur="250s" repeatCount="indefinite" begin="-422.2362192506952s"></animateTransform>
    <path d="M84.717,33.597c0.791-2.503,1.186-5.138,1.186-7.773C85.903,11.594,74.308,0,60.079,0 c-9.881,0-18.445,5.534-22.793,13.702c-1.581-0.527-3.426-0.791-5.138-0.791c-9.486,0-17.128,7.642-17.128,17.128 c0,1.186,0.132,2.372,0.395,3.426C6.719,34.783,0,42.424,0,51.515C0,61.66,8.169,69.829,18.314,69.829h63.373 C91.831,69.829,100,61.66,100,51.515C99.868,42.556,93.281,35.046,84.717,33.597z" fill="#bddeff" transform="scale(2)"></path>
  </g><g transform="translate(-100 1031.1044265021903) rotate(0)">
    <animateTransform attributeName="transform" type="translate" keyTimes="0;1" values="-100 1031.1044265021903;2560 1031.1044265021903" dur="250s" repeatCount="indefinite" begin="-354.69015179582385s"></animateTransform>
    <path d="M84.717,33.597c0.791-2.503,1.186-5.138,1.186-7.773C85.903,11.594,74.308,0,60.079,0 c-9.881,0-18.445,5.534-22.793,13.702c-1.581-0.527-3.426-0.791-5.138-0.791c-9.486,0-17.128,7.642-17.128,17.128 c0,1.186,0.132,2.372,0.395,3.426C6.719,34.783,0,42.424,0,51.515C0,61.66,8.169,69.829,18.314,69.829h63.373 C91.831,69.829,100,61.66,100,51.515C99.868,42.556,93.281,35.046,84.717,33.597z" fill="#bddeff" transform="scale(2)"></path>
  </g><g transform="translate(-100 304.23132698152057) rotate(0)">
    <animateTransform attributeName="transform" type="translate" keyTimes="0;1" values="-100 304.23132698152057;2560 304.23132698152057" dur="250s" repeatCount="indefinite" begin="-807.4904362831965s"></animateTransform>
    <path d="M84.717,33.597c0.791-2.503,1.186-5.138,1.186-7.773C85.903,11.594,74.308,0,60.079,0 c-9.881,0-18.445,5.534-22.793,13.702c-1.581-0.527-3.426-0.791-5.138-0.791c-9.486,0-17.128,7.642-17.128,17.128 c0,1.186,0.132,2.372,0.395,3.426C6.719,34.783,0,42.424,0,51.515C0,61.66,8.169,69.829,18.314,69.829h63.373 C91.831,69.829,100,61.66,100,51.515C99.868,42.556,93.281,35.046,84.717,33.597z" fill="#bddeff" transform="scale(2)"></path>
  </g><g transform="translate(-100 409.2134090217153) rotate(0)">
    <animateTransform attributeName="transform" type="translate" keyTimes="0;1" values="-100 409.2134090217153;2560 409.2134090217153" dur="250s" repeatCount="indefinite" begin="-260.70912148210425s"></animateTransform>
    <path d="M84.717,33.597c0.791-2.503,1.186-5.138,1.186-7.773C85.903,11.594,74.308,0,60.079,0 c-9.881,0-18.445,5.534-22.793,13.702c-1.581-0.527-3.426-0.791-5.138-0.791c-9.486,0-17.128,7.642-17.128,17.128 c0,1.186,0.132,2.372,0.395,3.426C6.719,34.783,0,42.424,0,51.515C0,61.66,8.169,69.829,18.314,69.829h63.373 C91.831,69.829,100,61.66,100,51.515C99.868,42.556,93.281,35.046,84.717,33.597z" fill="#bddeff" transform="scale(2)"></path>
  </g><g transform="translate(-100 719.8214503465639) rotate(0)">
    <animateTransform attributeName="transform" type="translate" keyTimes="0;1" values="-100 719.8214503465639;2560 719.8214503465639" dur="250s" repeatCount="indefinite" begin="-264.0204585681436s"></animateTransform>
    <path d="M84.717,33.597c0.791-2.503,1.186-5.138,1.186-7.773C85.903,11.594,74.308,0,60.079,0 c-9.881,0-18.445,5.534-22.793,13.702c-1.581-0.527-3.426-0.791-5.138-0.791c-9.486,0-17.128,7.642-17.128,17.128 c0,1.186,0.132,2.372,0.395,3.426C6.719,34.783,0,42.424,0,51.515C0,61.66,8.169,69.829,18.314,69.829h63.373 C91.831,69.829,100,61.66,100,51.515C99.868,42.556,93.281,35.046,84.717,33.597z" fill="#bddeff" transform="scale(2)"></path>
  </g><g transform="translate(-100 188.74869072785845) rotate(0)">
    <animateTransform attributeName="transform" type="translate" keyTimes="0;1" values="-100 188.74869072785845;2560 188.74869072785845" dur="250s" repeatCount="indefinite" begin="-238.35088010995142s"></animateTransform>
    <path d="M84.717,33.597c0.791-2.503,1.186-5.138,1.186-7.773C85.903,11.594,74.308,0,60.079,0 c-9.881,0-18.445,5.534-22.793,13.702c-1.581-0.527-3.426-0.791-5.138-0.791c-9.486,0-17.128,7.642-17.128,17.128 c0,1.186,0.132,2.372,0.395,3.426C6.719,34.783,0,42.424,0,51.515C0,61.66,8.169,69.829,18.314,69.829h63.373 C91.831,69.829,100,61.66,100,51.515C99.868,42.556,93.281,35.046,84.717,33.597z" fill="#bddeff" transform="scale(2)"></path>
  </g><g transform="translate(-100 670.6484273693695) rotate(0)">
    <animateTransform attributeName="transform" type="translate" keyTimes="0;1" values="-100 670.6484273693695;2560 670.6484273693695" dur="250s" repeatCount="indefinite" begin="-781.1558591497214s"></animateTransform>
    <path d="M84.717,33.597c0.791-2.503,1.186-5.138,1.186-7.773C85.903,11.594,74.308,0,60.079,0 c-9.881,0-18.445,5.534-22.793,13.702c-1.581-0.527-3.426-0.791-5.138-0.791c-9.486,0-17.128,7.642-17.128,17.128 c0,1.186,0.132,2.372,0.395,3.426C6.719,34.783,0,42.424,0,51.515C0,61.66,8.169,69.829,18.314,69.829h63.373 C91.831,69.829,100,61.66,100,51.515C99.868,42.556,93.281,35.046,84.717,33.597z" fill="#bddeff" transform="scale(2)"></path>
  </g><g transform="translate(-100 840.2105770346899) rotate(0)">
    <animateTransform attributeName="transform" type="translate" keyTimes="0;1" values="-100 840.2105770346899;2560 840.2105770346899" dur="250s" repeatCount="indefinite" begin="-771.8764630416429s"></animateTransform>
    <path d="M84.717,33.597c0.791-2.503,1.186-5.138,1.186-7.773C85.903,11.594,74.308,0,60.079,0 c-9.881,0-18.445,5.534-22.793,13.702c-1.581-0.527-3.426-0.791-5.138-0.791c-9.486,0-17.128,7.642-17.128,17.128 c0,1.186,0.132,2.372,0.395,3.426C6.719,34.783,0,42.424,0,51.515C0,61.66,8.169,69.829,18.314,69.829h63.373 C91.831,69.829,100,61.66,100,51.515C99.868,42.556,93.281,35.046,84.717,33.597z" fill="#bddeff" transform="scale(2)"></path>
  </g><g transform="translate(-100 1069.234582860447) rotate(0)">
    <animateTransform attributeName="transform" type="translate" keyTimes="0;1" values="-100 1069.234582860447;2560 1069.234582860447" dur="250s" repeatCount="indefinite" begin="-279.5440988189435s"></animateTransform>
    <path d="M84.717,33.597c0.791-2.503,1.186-5.138,1.186-7.773C85.903,11.594,74.308,0,60.079,0 c-9.881,0-18.445,5.534-22.793,13.702c-1.581-0.527-3.426-0.791-5.138-0.791c-9.486,0-17.128,7.642-17.128,17.128 c0,1.186,0.132,2.372,0.395,3.426C6.719,34.783,0,42.424,0,51.515C0,61.66,8.169,69.829,18.314,69.829h63.373 C91.831,69.829,100,61.66,100,51.515C99.868,42.556,93.281,35.046,84.717,33.597z" fill="#bddeff" transform="scale(2)"></path>
  </g><g transform="translate(-100 45.48135742784398) rotate(0)">
    <animateTransform attributeName="transform" type="translate" keyTimes="0;1" values="-100 45.48135742784398;2560 45.48135742784398" dur="250s" repeatCount="indefinite" begin="-17.459364534882393s"></animateTransform>
    <path d="M84.717,33.597c0.791-2.503,1.186-5.138,1.186-7.773C85.903,11.594,74.308,0,60.079,0 c-9.881,0-18.445,5.534-22.793,13.702c-1.581-0.527-3.426-0.791-5.138-0.791c-9.486,0-17.128,7.642-17.128,17.128 c0,1.186,0.132,2.372,0.395,3.426C6.719,34.783,0,42.424,0,51.515C0,61.66,8.169,69.829,18.314,69.829h63.373 C91.831,69.829,100,61.66,100,51.515C99.868,42.556,93.281,35.046,84.717,33.597z" fill="#bddeff" transform="scale(2)"></path>
  </g><g transform="translate(-100 176.05232117313562) rotate(0)">
    <animateTransform attributeName="transform" type="translate" keyTimes="0;1" values="-100 176.05232117313562;2560 176.05232117313562" dur="250s" repeatCount="indefinite" begin="-676.1772682879355s"></animateTransform>
    <path d="M84.717,33.597c0.791-2.503,1.186-5.138,1.186-7.773C85.903,11.594,74.308,0,60.079,0 c-9.881,0-18.445,5.534-22.793,13.702c-1.581-0.527-3.426-0.791-5.138-0.791c-9.486,0-17.128,7.642-17.128,17.128 c0,1.186,0.132,2.372,0.395,3.426C6.719,34.783,0,42.424,0,51.515C0,61.66,8.169,69.829,18.314,69.829h63.373 C91.831,69.829,100,61.66,100,51.515C99.868,42.556,93.281,35.046,84.717,33.597z" fill="#bddeff" transform="scale(2)"></path>
  </g></g>
</svg>